<svg id="visual" viewBox="0 0 900 600" width="900" height="600" xmlns="http://www.w3.org/2000/svg" xmlns:xlink="http://www.w3.org/1999/xlink" version="1.1"><rect x="0" y="0" width="900" height="600" fill="#020506"></rect><path d="M0 582L15 580.7C30 579.3 60 576.7 90 572.3C120 568 150 562 180 563.5C210 565 240 574 270 574.3C300 574.7 330 566.3 360 565.8C390 565.3 420 572.7 450 575.7C480 578.7 510 577.3 540 574.2C570 571 600 566 630 562.7C660 559.3 690 557.7 720 558.3C750 559 780 562 810 562.3C840 562.7 870 560.3 885 559.2L900 558L900 601L885 601C870 601 840 601 810 601C780 601 750 601 720 601C690 601 660 601 630 601C600 601 570 601 540 601C510 601 480 601 450 601C420 601 390 601 360 601C330 601 300 601 270 601C240 601 210 601 180 601C150 601 120 601 90 601C60 601 30 601 15 601L0 601Z" fill="#C62368" stroke-linecap="round" stroke-linejoin="miter"></path></svg>