<svg id="visual" viewBox="0 0 900 600" width="900" height="600" xmlns="http://www.w3.org/2000/svg" xmlns:xlink="http://www.w3.org/1999/xlink" version="1.1"><rect x="0" y="0" width="900" height="600" fill="#020506"></rect><path d="M0 16L15 17.3C30 18.7 60 21.3 90 25.7C120 30 150 36 180 34.5C210 33 240 24 270 23.7C300 23.3 330 31.7 360 32.2C390 32.7 420 25.3 450 22.3C480 19.3 510 20.7 540 23.8C570 27 600 32 630 35.3C660 38.7 690 40.3 720 39.7C750 39 780 36 810 35.7C840 35.3 870 37.7 885 38.8L900 40L900 0L885 0C870 0 840 0 810 0C780 0 750 0 720 0C690 0 660 0 630 0C600 0 570 0 540 0C510 0 480 0 450 0C420 0 390 0 360 0C330 0 300 0 270 0C240 0 210 0 180 0C150 0 120 0 90 0C60 0 30 0 15 0L0 0Z" fill="#C62368" stroke-linecap="round" stroke-linejoin="miter"></path></svg>